HIERARCHY
ROOT Bip001_Pelvis
{
  OFFSET 34.4345 95.6767 -26.8758
  CHANNELS 6 Xposition Yposition Zposition Zrotation Xrotation Yrotation
  JOINT Bip001_Spine
  {
    OFFSET 1.4188e-005 10.2191 -0.0116013
    CHANNELS 3 Zrotation Xrotation Yrotation
    JOINT Bip001_L_Thigh
    {
      OFFSET 11.0458 -10.2192 0.0116197
      CHANNELS 3 Zrotation Xrotation Yrotation
      JOINT Bip001_L_Calf
      {
        OFFSET -0.707118 -44.0221 0.360014
        CHANNELS 3 Zrotation Xrotation Yrotation
        JOINT Bip001_L_Foot
        {
          OFFSET -0.651902 -40.5938 -3.56146
          CHANNELS 3 Zrotation Xrotation Yrotation
          JOINT Bip001_L_Toe0
          {
            OFFSET 0.0530839 -10.2181 13.1504
            CHANNELS 3 Zrotation Xrotation Yrotation
            End Site
            {
              OFFSET -1.02532e-005 0 7.55606
            }
          }
        }
      }
    }
    JOINT Bip001_R_Thigh
    {
      OFFSET -11.0458 -10.2191 0.0115893
      CHANNELS 3 Zrotation Xrotation Yrotation
      JOINT Bip001_R_Calf
      {
        OFFSET 0.706994 -44.0221 0.35984
        CHANNELS 3 Zrotation Xrotation Yrotation
        JOINT Bip001_R_Foot
        {
          OFFSET 0.651786 -40.5938 -3.5613
          CHANNELS 3 Zrotation Xrotation Yrotation
          JOINT Bip001_R_Toe0
          {
            OFFSET -0.0531479 -10.2181 13.1504
            CHANNELS 3 Zrotation Xrotation Yrotation
            End Site
            {
              OFFSET -1.02894e-005 0 7.55606
            }
          }
        }
      }
    }
    JOINT Bip001_Spine1
    {
      OFFSET 1.87041e-005 14.5736 1.08638
      CHANNELS 3 Zrotation Xrotation Yrotation
      JOINT Bip001_Spine2
      {
        OFFSET 2.24614e-005 14.5058 -1.69078
        CHANNELS 3 Zrotation Xrotation Yrotation
        JOINT Bip001_Neck
        {
          OFFSET 2.20278e-005 15.3945 -0.489414
          CHANNELS 3 Zrotation Xrotation Yrotation
          JOINT Bip001_L_Clavicle
          {
            OFFSET 6.06036 -0.000579998 0.00836775
            CHANNELS 3 Zrotation Xrotation Yrotation
            JOINT Bip001_L_UpperArm
            {
              OFFSET 11.5509 -0.0600302 0.00193952
              CHANNELS 3 Zrotation Xrotation Yrotation
              JOINT Bip001_L_Forearm
              {
                OFFSET 25.9523 0.0806089 -2.15551
                CHANNELS 3 Zrotation Xrotation Yrotation
                JOINT Bip001_L_Hand
                {
                  OFFSET 32.2475 0.153767 1.63968
                  CHANNELS 3 Zrotation Xrotation Yrotation
                  JOINT Bip001_L_Finger0
                  {
                    OFFSET 6.04639 -2.20976 5.90322
                    CHANNELS 3 Zrotation Xrotation Yrotation
                    End Site
                    {
                      OFFSET 4.22375 -1.43895 0.606485
                    }
                  }
                  JOINT Bip001_L_Finger1
                  {
                    OFFSET 11.0826 -0.704819 -0.198153
                    CHANNELS 3 Zrotation Xrotation Yrotation
                    End Site
                    {
                      OFFSET 6.20027 -0.397518 -0.0787166
                    }
                  }
                }
              }
            }
          }
          JOINT Bip001_R_Clavicle
          {
            OFFSET -6.06037 -0.000563197 0.00835105
            CHANNELS 3 Zrotation Xrotation Yrotation
            JOINT Bip001_R_UpperArm
            {
              OFFSET -11.5509 -0.0599978 0.00190698
              CHANNELS 3 Zrotation Xrotation Yrotation
              JOINT Bip001_R_Forearm
              {
                OFFSET -25.9523 0.0806822 -2.15589
                CHANNELS 3 Zrotation Xrotation Yrotation
                JOINT Bip001_R_Hand
                {
                  OFFSET -32.2475 0.153859 1.63989
                  CHANNELS 3 Zrotation Xrotation Yrotation
                  JOINT Bip001_R_Finger0
                  {
                    OFFSET -6.04641 -2.20976 5.90317
                    CHANNELS 3 Zrotation Xrotation Yrotation
                    End Site
                    {
                      OFFSET -4.22376 -1.43895 0.60647
                    }
                  }
                  JOINT Bip001_R_Finger1
                  {
                    OFFSET -11.0826 -0.704794 -0.198182
                    CHANNELS 3 Zrotation Xrotation Yrotation
                    End Site
                    {
                      OFFSET -6.20028 -0.397504 -0.0787333
                    }
                  }
                }
              }
            }
          }
          JOINT Bip001_Head
          {
            OFFSET 1.09673e-005 11.2744 2.05948
            CHANNELS 3 Zrotation Xrotation Yrotation
            End Site
            {
              OFFSET 2.89576e-005 20.8808 -2.77728e-005
            }
          }
        }
      }
    }
  }
}
MOTION
Frames:	10
Frame Time:	0.04
33.7739 95.6794 -28.3338 -1.91008 0.0510223 2.25579 0.0363193 1.50868 -0.687893 8.82828 -5.74946 8.82629 -2.51132 13.2217 -6.19115 1.80481 -7.28146 0.0623367 0.814405 -4.17143 -0.320628 -1.82129 -1.38606 -3.22816 -0.86702 7.02846 -0.359022 -6.23306 -6.60987 -0.645672 2.81252 -9.93212 3.79525 0.0949207 3.01544 -1.38242 0.0927416 3.01544 -1.38024 -1.73285 -9.28833 1.17258 -18.5804 11.9612 -5.06326 -58.4245 39.9127 8.5558 14.764 1.37936 -22.312 7.03157 0.517001 -6.20211 -3.18055e-015 -9.54166e-015 4.77083e-015 -3.18055e-015 -9.54167e-015 4.77083e-015 12.4939 14.4143 24.6112 62.3309 -73.0662 56.482 -43.4806 3.26522 83.4679 -21.4249 -6.35995 4.23538 -4.64371e-032 5.46658e-016 4.86712e-015 7.95139e-016 4.47266e-016 2.62147e-015 4.18096 -0.0249078 -0.183406 
33.4964 95.7447 -28.3773 -2.89463 0.124278 3.62317 0.0410976 1.49341 -0.523036 10.4064 -6.51121 9.73315 -2.87071 13.9932 -7.90991 1.18046 -7.88411 0.0644139 0.820299 -3.73193 -0.522543 -0.293052 -0.443205 -3.50221 -1.3015 5.09063 -0.142757 -6.49634 -5.25778 -1.66369 2.81365 -9.87063 3.70268 0.0968617 2.98599 -1.04802 0.0964001 2.9861 -1.0479 -0.975891 -8.44883 0.181156 -19.6662 10.7689 -4.03693 -57.6788 41.2467 8.93545 15.4066 0.660112 -23.1932 6.86566 0.062428 -6.42843 -6.36111e-015 -6.36111e-015 -0 -6.36111e-015 -3.18056e-015 3.18055e-015 8.88803 13.9628 30.8239 53.2575 -65.9765 57.4406 -43.2579 3.4393 73.851 -20.8313 -5.84763 5.05341 2.48282e-032 -1.59028e-015 8.94531e-016 7.95139e-016 -1.59028e-015 7.95139e-016 3.48698 -0.20008 -0.815825 
33.1166 95.8056 -28.4637 -3.8166 0.290638 4.88021 0.0373004 1.54233 -0.311952 11.8464 -7.28853 10.8122 -3.07124 14.2968 -10.1101 1.13532 -7.82066 0.0675336 0.81166 -3.74815 -0.598297 1.13398 0.371739 -3.3574 -1.48435 2.89955 -0.0371274 -6.87177 -3.71149 -2.90575 2.85434 -9.86791 3.57369 0.0763013 3.08447 -0.626339 0.079418 3.08444 -0.625515 0.064171 -7.94826 -0.753358 -20.8897 9.85963 -2.96151 -56.8666 41.8906 9.27879 15.6515 -1.84404 -24.8653 6.27637 0.0763134 -6.18948 -3.18055e-015 -1.27222e-014 3.18055e-015 5.29669e-031 -9.54167e-015 3.18055e-015 5.12805 13.3844 36.4685 25.508 -51.9661 43.6506 -44.5741 1.92242 53.097 -29.3387 -3.74761 3.54854 1.98785e-016 -1.59028e-015 -6.95746e-016 0 0 -4.96962e-016 2.02519 -0.356352 -1.15568 
32.4585 95.7702 -28.6095 -4.51688 0.563741 6.86168 0.0732643 1.54323 -0.30369 13.1562 -8.66016 10.8576 -3.46283 15.0344 -12.1243 1.72897 -7.41601 0.0690656 0.919309 -4.24525 -0.657438 2.50042 0.307658 -3.96252 -1.85335 2.40423 -0.235419 -7.14647 -3.34513 -3.9068 2.84535 -9.82249 3.51525 0.153742 3.08611 -0.607128 0.154343 3.08611 -0.608308 0.977642 -7.01556 -1.51133 -21.8641 8.32037 -1.23198 -56.6245 42.8795 9.60817 15.5981 -4.86089 -26.9731 5.61106 0.431842 -5.11824 5.29669e-031 -9.54166e-015 3.18055e-015 -3.18055e-015 -6.36111e-015 3.18055e-015 0.574073 11.4604 39.9126 51.4254 -56.1081 69.0708 -60.9737 11.4832 47.8201 -22.8329 -8.10974 4.14851 -9.93923e-017 0 -2.69602e-015 9.93923e-017 -1.59028e-015 -3.14328e-015 0.610286 -0.761966 -1.36266 
31.8146 95.6962 -28.5999 -4.42626 0.925815 10.0198 -0.13402 1.39356 -0.509536 13.5946 -9.84579 10.7529 -3.56671 15.0125 -14.6378 2.52785 -6.30734 0.046766 1.34482 -4.94213 -1.0845 3.25976 -0.267461 -6.73344 -2.36049 3.68046 -0.113194 -7.08407 -4.19122 -3.76699 2.85859 -9.49227 2.98834 -0.254656 2.78826 -1.01645 -0.25549 2.78826 -1.0164 4.62091 -4.91409 -3.12062 -24.2915 5.14411 0.901739 -58.0146 44.4009 10.2178 16.4511 -5.58905 -28.0693 5.06402 0.667835 -3.96728 -1.59028e-015 -6.36111e-015 6.36111e-015 -1.59028e-015 -6.36111e-015 6.36111e-015 0.983741 10.5899 38.5166 59.0797 -60.0428 77.7218 -45.6914 5.62658 47.1065 -24.5862 -1.48299 2.25143 1.98785e-016 -3.18055e-015 3.03147e-015 -3.97569e-016 -4.77083e-015 1.93815e-015 -2.14461 -1.27934 -1.42347 
31.6955 95.7279 -28.3874 -3.39594 0.553823 12.1676 -0.304009 1.34733 -0.734496 12.856 -9.12988 10.8778 -3.52641 13.8175 -15.8412 0.39863 -6.62504 0.0409523 1.15435 -3.52528 -1.18295 2.65606 -0.0863281 -8.8763 -2.69314 5.21206 -0.169215 -7.04997 -5.16876 -3.32044 2.88138 -9.43494 2.82632 -0.609785 2.69809 -1.45899 -0.593328 2.69818 -1.45991 8.37663 -1.56903 -4.98218 -27.3182 1.57501 -1.04794 -60.2097 42.0024 13.2117 16.5039 -3.75013 -29.6385 6.28083 0.925457 -3.81037 -3.18055e-015 3.18055e-015 3.18055e-015 -6.36111e-015 3.18056e-015 3.18055e-015 -0.827562 6.74349 34.1194 30.9232 -56.4141 54.1463 -42.9903 3.83565 40.949 -20.1994 -2.90483 1.59533 -1.59028e-015 -1.59028e-015 -6.75868e-015 -1.59028e-015 -3.18056e-015 -7.35503e-015 -7.63104 -3.27566 -0.965331 
32.2579 95.8407 -28.3274 -2.10494 -0.119335 10.5093 -0.277241 1.51262 -1.08335 10.9975 -6.90602 11.4625 -2.98836 11.9163 -14.5903 -0.515296 -6.36342 0.0376248 0.936853 -2.99197 -1.04815 0.868198 -0.159333 -6.00503 -2.2082 6.69585 -0.296052 -7.43254 -5.42181 -4.50598 2.86313 -9.64164 3.24124 -0.527575 3.03015 -2.16892 -0.531519 3.03005 -2.16472 4.87034 -0.701618 -2.93581 -24.3036 1.69757 -2.29445 -61.0277 42.6083 13.7138 15.6729 -1.21144 -28.2067 7.07189 0.350274 -6.08561 0 0 -1.59028e-015 -1.76556e-031 -3.18056e-015 -3.18055e-015 -1.78362 4.43513 32.0464 14.8339 -47.0224 40.0898 -35.9946 -7.51069 34.1119 -15.1272 -3.87721 3.47803 4.77083e-015 0 3.97569e-016 3.18055e-015 -1.59028e-015 1.59028e-015 -6.39724 -3.05195 -0.396506 
32.663 95.8272 -28.521 -2.63111 -0.126973 6.69005 -0.0187311 1.66686 -0.910122 11.0359 -6.6841 11.0479 -3.07472 12.89 -11.0405 -0.158796 -7.2905 0.0388598 0.622354 -3.00269 -0.591576 0.377177 -0.923235 -1.46241 -1.20776 6.66434 -0.654632 -7.6227 -4.88282 -5.35245 2.76479 -9.59307 3.39497 -0.0349543 3.33421 -1.81403 -0.0246265 3.33429 -1.8162 0.656732 -2.40875 -1.37221 -20.6614 3.87394 -2.33588 -59.5307 44.7751 11.0773 15.8551 3.51573 -24.6159 4.49975 -0.00510542 -8.34998 -6.36111e-015 6.36111e-015 -1.59028e-015 -9.54166e-015 0 -1.59028e-015 0.617704 5.67687 30.9721 16.233 -46.2013 37.8207 -33.2722 -8.75834 37.8982 -16.9255 -4.3603 4.04319 2.64834e-031 3.18055e-015 -4.77083e-015 2.86904e-031 3.18056e-015 -5.1684e-015 -2.49172 -2.11 -0.532512 
32.9071 95.7562 -28.7738 -3.15383 -0.254343 3.34378 0.0579297 1.77381 -0.0615964 11.1587 -6.55681 10.6234 -2.95063 13.8275 -8.55985 0.975947 -7.66248 0.0665448 0.908339 -3.70523 -0.756445 0.05428 -1.43999 0.695612 -0.117879 6.68351 -0.471664 -7.42075 -4.77925 -4.73548 2.73945 -9.0518 2.71467 0.116973 3.5477 -0.131085 0.110381 3.54762 -0.130271 2.268 -3.55924 -2.67317 -22.4117 5.30089 -4.09108 -57.8354 44.2832 9.00711 15.198 7.6854 -22.1736 2.81431 0.562666 -8.13258 -1.59028e-015 -3.18055e-015 -0 -1.59028e-015 0 7.95139e-016 2.10449 7.56021 29.2671 19.0816 -48.0049 37.8355 -37.73 -4.21949 45.6784 -19.3073 -5.18012 5.76794 1.59028e-015 0 -1.19271e-015 1.10348e-032 1.59028e-015 -3.97569e-016 -3.76313 -1.80181 -1.23862 
33.3133 95.7884 -28.8741 -1.74299 -0.44637 1.60877 -0.155339 1.83905 0.131521 8.57319 -5.22312 8.62896 -1.57822 11.7059 -5.48711 0.675181 -6.63925 0.0516266 1.01882 -3.9039 -0.764802 -1.96496 -2.29083 0.0973188 0.640192 8.34045 -0.233031 -7.07639 -6.09401 -3.28334 2.67417 -8.88439 2.71548 -0.321215 3.67779 0.265361 -0.3206 3.67778 0.267101 2.49129 -5.18238 -3.01944 -22.5457 6.76613 -3.65326 -57.6727 43.7369 7.53733 14.9081 9.82949 -20.6427 1.99065 1.44847 -7.21395 -0 -3.18055e-015 -0 -0 -6.36111e-015 -0 5.70789 10.1012 27.1691 29.1027 -52.5881 40.9183 -40.3953 -0.519373 59.978 -18.8596 -7.7014 6.19653 3.18055e-015 1.59028e-015 3.97569e-016 3.18055e-015 3.18056e-015 3.97569e-016 -3.91755 -0.238327 -1.44587 
